<?xml version="1.0" encoding="UTF-8" standalone="no"?>
<!-- Created with Inkscape (http://www.inkscape.org/) -->

<svg
   width="512"
   height="512"
   viewBox="0 0 135.46667 135.46667"
   version="1.1"
   id="svg1"
   xml:space="preserve"
   sodipodi:docname="conejo logo.svg"
   inkscape:version="1.4 (86a8ad7, 2024-10-11)"
   inkscape:export-filename="conejo logo.png"
   inkscape:export-xdpi="96"
   inkscape:export-ydpi="96"
   xmlns:inkscape="http://www.inkscape.org/namespaces/inkscape"
   xmlns:sodipodi="http://sodipodi.sourceforge.net/DTD/sodipodi-0.dtd"
   xmlns:xlink="http://www.w3.org/1999/xlink"
   xmlns="http://www.w3.org/2000/svg"
   xmlns:svg="http://www.w3.org/2000/svg"><sodipodi:namedview
     id="namedview1"
     pagecolor="#505050"
     bordercolor="#ffffff"
     borderopacity="1"
     inkscape:showpageshadow="0"
     inkscape:pageopacity="0"
     inkscape:pagecheckerboard="1"
     inkscape:deskcolor="#d1d1d1"
     inkscape:document-units="mm"
     inkscape:zoom="1.3833223"
     inkscape:cx="241.44771"
     inkscape:cy="238.19467"
     inkscape:window-width="1920"
     inkscape:window-height="1051"
     inkscape:window-x="-9"
     inkscape:window-y="-9"
     inkscape:window-maximized="1"
     inkscape:current-layer="layer3" /><defs
     id="defs1"><rect
       x="694.24603"
       y="520.48608"
       width="1084.0814"
       height="199.51967"
       id="rect73" /><linearGradient
       id="linearGradient16"
       inkscape:collect="always"><stop
         style="stop-color:#d9a776;stop-opacity:1;"
         offset="0.13766234"
         id="stop42" /><stop
         style="stop-color:#ead193;stop-opacity:1;"
         offset="0.19220781"
         id="stop19" /><stop
         style="stop-color:#ecc99c;stop-opacity:1;"
         offset="0.28571427"
         id="stop41" /><stop
         style="stop-color:#e3bd82;stop-opacity:1;"
         offset="0.3816883"
         id="stop40" /></linearGradient><linearGradient
       id="swatch12"
       inkscape:swatch="solid"><stop
         style="stop-color:#ffcd21;stop-opacity:1;"
         offset="0"
         id="stop12" /></linearGradient><filter
       inkscape:collect="always"
       style="color-interpolation-filters:sRGB"
       id="filter39"
       x="-0.055457651"
       y="-0.031262339"
       width="1.1109327"
       height="1.0625247"><feGaussianBlur
         inkscape:collect="always"
         stdDeviation="2.5111201"
         id="feGaussianBlur39" /></filter><filter
       inkscape:collect="always"
       style="color-interpolation-filters:sRGB"
       id="filter39-6"
       x="-0.058978103"
       y="-0.0332461"
       width="1.1179769"
       height="1.0664922"><feGaussianBlur
         inkscape:collect="always"
         stdDeviation="2.5111201"
         id="feGaussianBlur39-7" /></filter><filter
       inkscape:collect="always"
       style="color-interpolation-filters:sRGB"
       id="filter41"
       x="-0.037922869"
       y="-0.021370099"
       width="1.0758796"
       height="1.0427402"><feGaussianBlur
         inkscape:collect="always"
         stdDeviation="0.13628163"
         id="feGaussianBlur41" /></filter><linearGradient
       inkscape:collect="always"
       xlink:href="#linearGradient16"
       id="linearGradient48"
       x1="19.988647"
       y1="148.51331"
       x2="190.01024"
       y2="148.51331"
       gradientUnits="userSpaceOnUse"
       spreadMethod="reflect" /><rect
       x="694.24603"
       y="520.48608"
       width="1084.0814"
       height="199.51967"
       id="rect73-8" /><rect
       x="694.24603"
       y="520.48608"
       width="1084.0814"
       height="199.51967"
       id="rect73-8-3" /></defs><g
     inkscape:label="Capa 1"
     inkscape:groupmode="layer"
     id="layer1"
     style="display:inline" /><g
     inkscape:groupmode="layer"
     id="layer3"
     inkscape:label="logo"><path
       id="path16394-3-7"
       style="display:inline;mix-blend-mode:multiply;fill:none;stroke:#000000;stroke-width:7.15200476;stroke-linecap:round;stroke-linejoin:bevel;stroke-dasharray:none;stroke-opacity:1;paint-order:normal;filter:url(#filter39-6)"
       d="m 68.21048,220.36359 c 0,0 -11.036536,-8.49941 -17.252545,-14.71542 -6.21601,-6.21601 -13.125349,-22.85197 -24.35658,-21.94624 -11.231205,0.9057 -11.290277,20.67768 -3.044539,36.15423 8.245738,15.47656 33.49025,26.89377 33.49025,26.89377 l -1.099188,3.55156 c -8.801394,27.90852 -5.757723,47.19143 -5.757723,47.19143 H 166.32001 c 0,0 3.04367,-19.28291 -5.75772,-47.19143 -8.79833,-27.89881 -16.34705,-32.09621 -16.35231,-32.09914 11.41629,-10.1708 18.60607,-24.98449 18.60607,-41.47713 0,-18.91117 -9.6242,-36.52332 -25.53971,-46.73734 0.31874,-0.29644 28.40063,-26.45443 35.46432,-47.645506 7.104,-21.31188 12.88455,-71.817797 1.01475,-73.5763022 C 123.98069,15.129954 113.46376,85.084604 112.19074,124.38576 h -4.16131 c 0,0 -1.17033,-49.263706 -13.867307,-73.503392 C 82.060266,27.778897 60.479752,8.8586128 48.205503,8.6581518 v 0 c -0.603634,-0.01085 -1.184351,0.02441 -1.740766,0.107947 -11.869746,1.7585052 -6.08924,52.2644252 1.014756,73.5763052 5.91251,17.737466 26.535632,38.937096 33.304477,45.566956 -17.295508,9.40851 -29.033845,27.74176 -29.033845,48.81589 0,16.93639 7.582324,32.10156 19.536708,42.28725 z"
       sodipodi:nodetypes="czzzccccscscssccssscscscc"
       inkscape:label="path16394"
       transform="matrix(0.43624132,0,0,0.43624132,18.481884,2.2680079)" /><path
       id="path16394-3"
       style="display:inline;mix-blend-mode:multiply;fill:none;stroke:#000000;stroke-width:6.00604;stroke-linecap:round;stroke-linejoin:bevel;stroke-dasharray:none;stroke-opacity:1;paint-order:normal;filter:url(#filter39)"
       d="m 70.677454,216.85341 c 0,0 -11.036536,-8.49941 -17.252545,-14.71542 -6.21601,-6.21601 -13.125349,-22.85197 -24.35658,-21.94624 -11.231205,0.9057 -11.290277,20.67768 -3.044539,36.15423 8.245738,15.47656 33.49025,26.89377 33.49025,26.89377 l -1.099188,3.55156 c -8.801394,27.90852 -5.757723,47.19143 -5.757723,47.19143 H 168.78698 c 0,0 3.04367,-19.28291 -5.75772,-47.19143 -8.79833,-27.89881 -16.34705,-32.09621 -16.35231,-32.09914 11.41629,-10.1708 18.60607,-24.98449 18.60607,-41.47713 0,-18.91117 -9.6242,-36.52332 -25.53971,-46.73734 0.31874,-0.29644 28.40063,-26.45443 35.46432,-47.645508 7.104,-21.311878 12.88455,-71.817795 1.01475,-73.5763003 C 126.44766,11.619773 115.93073,81.574425 114.65771,120.87558 h -4.1613 c 0,0 -1.17033,-49.263711 -13.867313,-73.503393 C 84.52724,24.268716 62.946726,5.3484332 50.672477,5.1479719 v 0 c -0.603634,-0.010849 -1.184351,0.02441 -1.740766,0.1079469 -11.869746,1.7585052 -6.08924,52.2644222 1.014756,73.5763012 5.91251,17.737476 26.535632,38.9371 33.304477,45.56696 -17.295508,9.40851 -29.033845,27.74176 -29.033845,48.81589 0,16.93639 7.582324,32.10156 19.536708,42.28725 z"
       sodipodi:nodetypes="czzzccccscscssccssscscscc"
       inkscape:label="path16394"
       transform="matrix(0.43624132,0,0,0.43624132,18.481884,2.2680079)" /><path
       id="path16394"
       style="display:inline;mix-blend-mode:normal;fill:none;stroke:url(#linearGradient48);stroke-width:11.69077702;stroke-linecap:round;stroke-linejoin:bevel;stroke-dasharray:none;stroke-opacity:1;paint-order:normal;filter:url(#filter41)"
       d="m 74.053807,215.80232 c 0,0 -11.036536,-8.49941 -17.252545,-14.71542 -6.21601,-6.21601 -13.125349,-22.85197 -24.35658,-21.94624 -11.231205,0.9057 -11.290277,20.67768 -3.044539,36.15423 8.245738,15.47656 33.49025,26.89377 33.49025,26.89377 l -1.099188,3.55156 c -8.801394,27.90852 -5.757723,47.19143 -5.757723,47.19143 H 172.16333 c 0,0 3.04367,-19.28291 -5.75772,-47.19143 -8.79833,-27.89881 -16.34705,-32.09621 -16.35231,-32.09914 11.41629,-10.1708 18.60607,-24.98449 18.60607,-41.47713 0,-18.91117 -9.6242,-36.52332 -25.53971,-46.73734 0.31874,-0.29644 28.40063,-26.454433 35.46432,-47.645507 7.104,-21.311878 12.88455,-71.8177956 1.01475,-73.5763006 C 129.82401,10.568684 119.30708,80.523336 118.03406,119.82449 h -4.1613 c 0,0 -1.17033,-49.26371 -13.86731,-73.503392 C 87.903593,23.217627 66.323079,4.2973439 54.04883,4.0968826 v 0 c -0.603634,-0.010849 -1.184351,0.02441 -1.740766,0.1079469 -11.869746,1.758505 -6.08924,52.2644225 1.014756,73.5763015 5.91251,17.737476 26.535632,38.937099 33.304477,45.566959 -17.295508,9.40851 -29.033845,27.74176 -29.033845,48.81589 0,16.93639 7.582324,32.10156 19.536708,42.28725 z"
       sodipodi:nodetypes="czzzccccscscssccssscscscc"
       inkscape:label="path16394"
       transform="matrix(0.43624132,0,0,0.43624132,18.481884,2.2680079)" /></g></svg>
