<?xml version="1.0" encoding="UTF-8" standalone="no"?>
<!-- Created with Inkscape (http://www.inkscape.org/) -->

<svg
   width="1920"
   height="1080"
   viewBox="0 0 507.99999 285.75"
   version="1.1"
   id="svg1"
   xml:space="preserve"
   sodipodi:docname="logo y texto metalico png .svg"
   inkscape:version="1.3.2 (091e20e, 2023-11-25, custom)"
   xmlns:inkscape="http://www.inkscape.org/namespaces/inkscape"
   xmlns:sodipodi="http://sodipodi.sourceforge.net/DTD/sodipodi-0.dtd"
   xmlns:xlink="http://www.w3.org/1999/xlink"
   xmlns="http://www.w3.org/2000/svg"
   xmlns:svg="http://www.w3.org/2000/svg"><sodipodi:namedview
     id="namedview1"
     pagecolor="#505050"
     bordercolor="#ffffff"
     borderopacity="1"
     inkscape:showpageshadow="0"
     inkscape:pageopacity="0"
     inkscape:pagecheckerboard="1"
     inkscape:deskcolor="#d1d1d1"
     inkscape:document-units="mm"
     inkscape:zoom="0.34583057"
     inkscape:cx="902.17588"
     inkscape:cy="634.70387"
     inkscape:window-width="1366"
     inkscape:window-height="745"
     inkscape:window-x="-8"
     inkscape:window-y="-8"
     inkscape:window-maximized="1"
     inkscape:current-layer="layer1" /><defs
     id="defs1"><linearGradient
       id="linearGradient11"
       inkscape:collect="always"><stop
         style="stop-color:#d2af68;stop-opacity:1;"
         offset="0.03896104"
         id="stop1" /><stop
         style="stop-color:#cda658;stop-opacity:1;"
         offset="0.12207797"
         id="stop2" /><stop
         style="stop-color:#d3b06a;stop-opacity:1;"
         offset="0.17662333"
         id="stop3" /><stop
         style="stop-color:#f0bf62;stop-opacity:1;"
         offset="0.26233765"
         id="stop4" /><stop
         style="stop-color:#eabd68;stop-opacity:1;"
         offset="0.35324672"
         id="stop5" /><stop
         style="stop-color:#ba9754;stop-opacity:1;"
         offset="0.45181817"
         id="stop6" /><stop
         style="stop-color:#d4af67;stop-opacity:1;"
         offset="0.52207792"
         id="stop7" /><stop
         style="stop-color:#ba9754;stop-opacity:1;"
         offset="0.63116884"
         id="stop8" /><stop
         style="stop-color:#ba9754;stop-opacity:1;"
         offset="0.67272729"
         id="stop9" /><stop
         style="stop-color:#e0b959;stop-opacity:1;"
         offset="0.74025977"
         id="stop10" /><stop
         style="stop-color:#ba9754;stop-opacity:1;"
         offset="0.82077926"
         id="stop11" /></linearGradient><rect
       x="694.24606"
       y="520.48609"
       width="1084.0814"
       height="199.51967"
       id="rect73" /><linearGradient
       id="linearGradient66"
       inkscape:collect="always"><stop
         style="stop-color:#d2af68;stop-opacity:1;"
         offset="0.03896104"
         id="stop63" /><stop
         style="stop-color:#cda658;stop-opacity:1;"
         offset="0.12207797"
         id="stop64" /><stop
         style="stop-color:#d3b06a;stop-opacity:1;"
         offset="0.17662333"
         id="stop67" /><stop
         style="stop-color:#f5c168;stop-opacity:1;"
         offset="0.26233765"
         id="stop68" /><stop
         style="stop-color:#cbab6b;stop-opacity:1;"
         offset="0.35324672"
         id="stop65" /><stop
         style="stop-color:#ba9754;stop-opacity:1;"
         offset="0.45181817"
         id="stop66" /><stop
         style="stop-color:#f0bc4f;stop-opacity:1;"
         offset="0.52207792"
         id="stop73" /><stop
         style="stop-color:#ba9754;stop-opacity:1;"
         offset="0.63116884"
         id="stop72" /><stop
         style="stop-color:#ba9754;stop-opacity:1;"
         offset="0.67272729"
         id="stop70" /><stop
         style="stop-color:#eabf66;stop-opacity:1;"
         offset="0.74025977"
         id="stop69" /><stop
         style="stop-color:#ba9754;stop-opacity:1;"
         offset="0.82077926"
         id="stop71" /></linearGradient><linearGradient
       id="linearGradient16"
       inkscape:collect="always"><stop
         style="stop-color:#b18f6f;stop-opacity:1;"
         offset="0.13766234"
         id="stop42" /><stop
         style="stop-color:#d6be81;stop-opacity:1;"
         offset="0.19220781"
         id="stop19" /><stop
         style="stop-color:#c6a57c;stop-opacity:1;"
         offset="0.28571427"
         id="stop41" /><stop
         style="stop-color:#c5ab80;stop-opacity:1;"
         offset="0.3816883"
         id="stop40" /></linearGradient><linearGradient
       id="swatch12"
       inkscape:swatch="solid"><stop
         style="stop-color:#ffcd21;stop-opacity:1;"
         offset="0"
         id="stop12" /></linearGradient><filter
       inkscape:collect="always"
       style="color-interpolation-filters:sRGB"
       id="filter39"
       x="-0.05545765"
       y="-0.031262339"
       width="1.1109327"
       height="1.0625247"><feGaussianBlur
         inkscape:collect="always"
         stdDeviation="2.5111201"
         id="feGaussianBlur39" /></filter><filter
       inkscape:collect="always"
       style="color-interpolation-filters:sRGB"
       id="filter39-6"
       x="-0.055457648"
       y="-0.031262339"
       width="1.1109327"
       height="1.0625247"><feGaussianBlur
         inkscape:collect="always"
         stdDeviation="2.5111201"
         id="feGaussianBlur39-7" /></filter><filter
       inkscape:collect="always"
       style="color-interpolation-filters:sRGB"
       id="filter41"
       x="-0.021018772"
       y="-0.011844801"
       width="1.0420555"
       height="1.0236896"><feGaussianBlur
         inkscape:collect="always"
         stdDeviation="0.13628163"
         id="feGaussianBlur41" /></filter><linearGradient
       inkscape:collect="always"
       xlink:href="#linearGradient16"
       id="linearGradient48"
       x1="19.988647"
       y1="148.51331"
       x2="190.01024"
       y2="148.51331"
       gradientUnits="userSpaceOnUse"
       spreadMethod="reflect" /><linearGradient
       inkscape:collect="always"
       xlink:href="#linearGradient11"
       id="linearGradient60"
       gradientUnits="userSpaceOnUse"
       x1="19.988647"
       y1="148.51331"
       x2="190.01024"
       y2="148.51331"
       spreadMethod="reflect"
       gradientTransform="matrix(1.373348,0,0,1.373348,-139.11409,-6.0092362)" /><filter
       inkscape:collect="always"
       style="color-interpolation-filters:sRGB"
       id="filter41-0"
       x="-0.013819572"
       y="-0.074488581"
       width="1.0276391"
       height="1.1489772"><feGaussianBlur
         inkscape:collect="always"
         stdDeviation="0.9079413"
         id="feGaussianBlur41-1" /></filter><linearGradient
       inkscape:collect="always"
       xlink:href="#linearGradient66"
       id="linearGradient74"
       gradientUnits="userSpaceOnUse"
       x1="19.988647"
       y1="148.51331"
       x2="190.01024"
       y2="148.51331"
       spreadMethod="reflect" /><rect
       x="694.24603"
       y="520.48608"
       width="1084.0814"
       height="199.51967"
       id="rect73-8" /><filter
       inkscape:collect="always"
       style="color-interpolation-filters:sRGB"
       id="filter74"
       x="-0.008098368"
       y="-0.075167057"
       width="1.0161967"
       height="1.1503341"><feGaussianBlur
         inkscape:collect="always"
         stdDeviation="1.6553979"
         id="feGaussianBlur74" /></filter><rect
       x="694.24603"
       y="520.48608"
       width="1084.0814"
       height="199.51967"
       id="rect73-8-3" /><filter
       inkscape:collect="always"
       style="color-interpolation-filters:sRGB"
       id="filter74-1"
       x="-0.014045895"
       y="-0.13037054"
       width="1.0280918"
       height="1.2607411"><feGaussianBlur
         inkscape:collect="always"
         stdDeviation="2.9429296"
         id="feGaussianBlur74-9" /></filter><filter
       inkscape:collect="always"
       style="color-interpolation-filters:sRGB"
       id="filter41-0-9"
       x="-0.0054538596"
       y="-0.029396733"
       width="1.0109077"
       height="1.0587935"><feGaussianBlur
         inkscape:collect="always"
         stdDeviation="0.39330897"
         id="feGaussianBlur41-1-4" /></filter></defs><g
     inkscape:label="Capa 1"
     inkscape:groupmode="layer"
     id="layer1"
     style="display:inline"><path
       id="text48-4"
       style="font-size:58.5571px;-inkscape-font-specification:'sans-serif, Normal';display:inline;mix-blend-mode:normal;fill:none;fill-opacity:1;stroke:#000000;stroke-width:2.24851951;stroke-linecap:butt;stroke-linejoin:round;stroke-miterlimit:3.1;stroke-dasharray:none;stroke-opacity:0.996774;paint-order:normal;filter:url(#filter41-0)"
       d="m 317.83021,55.233321 c -2.93547,0 -5.65179,0.495531 -8.14885,1.486731 -2.478,0.9912 -4.5558,2.420596 -6.23322,4.288627 -1.75366,1.963338 -3.0879,4.327118 -4.00285,7.09104 -0.91495,2.744861 -1.37253,5.852195 -1.37253,9.321395 0,3.526384 0.45758,6.6618 1.37253,9.406661 0.93401,2.744861 2.25889,5.060804 3.97443,6.947896 1.71554,1.887092 3.79334,3.326366 6.23321,4.317566 2.45894,0.9912 5.18462,1.486731 8.17728,1.486731 3.06891,0 5.79459,-0.48617 8.17728,-1.458309 2.40175,-0.972138 4.47955,-2.420772 6.23321,-4.345988 1.69647,-1.848968 3.01148,-4.155551 3.9455,-6.919474 0.95307,-2.782984 1.42988,-5.92776 1.42988,-9.435083 0,-3.507322 -0.46693,-6.643254 -1.40094,-9.407178 -0.91496,-2.763922 -2.23984,-5.099103 -3.97444,-7.005257 -1.69648,-1.848969 -3.76491,-3.269005 -6.20479,-4.260205 -2.42081,-1.010262 -5.15585,-1.515153 -8.2057,-1.515153 z m -98.18625,0.886251 v 42.574145 h 15.09675 c 2.95454,0 5.38487,-0.267261 7.29103,-0.800984 1.92521,-0.533723 3.68843,-1.42963 5.2896,-2.687691 1.35336,-1.048385 2.43022,-2.382626 3.23081,-4.002857 0.80058,-1.62023 1.20096,-3.487962 1.20096,-5.603792 0,-2.954539 -0.82884,-5.394752 -2.48719,-7.319967 -1.65836,-1.944277 -3.92698,-3.211444 -6.80527,-3.802352 v -0.228926 c 1.71554,-0.85777 3.08826,-1.991823 4.11758,-3.402377 1.02932,-1.429615 1.54358,-3.154872 1.54358,-5.175394 0,-1.791785 -0.35255,-3.326214 -1.05782,-4.603337 -0.70528,-1.296184 -1.83933,-2.35432 -3.40238,-3.173966 -1.41055,-0.724338 -2.88778,-1.200632 -4.43177,-1.429371 -1.54398,-0.228738 -3.86929,-0.343131 -6.97632,-0.343131 z m 40.1438,0 v 42.574145 h 5.66115 V 81.767102 h 7.97729 l 14.23893,16.926615 h 7.34839 l -16.01195,-18.61385 c 2.70674,-1.048385 4.83237,-2.602052 6.37636,-4.660698 1.54398,-2.077708 2.31614,-4.651035 2.31614,-7.719942 0,-2.268323 -0.43885,-4.136054 -1.31568,-5.603792 -0.85777,-1.4868 -2.05838,-2.716526 -3.60237,-3.688664 -1.37243,-0.857769 -2.91674,-1.448456 -4.63227,-1.772502 -1.71554,-0.343107 -3.8599,-0.514697 -6.4332,-0.514697 z m 86.80607,0 v 42.574145 h 10.75077 c 3.90761,0 7.05291,-0.267261 9.4356,-0.800984 2.40175,-0.533723 4.5747,-1.401032 6.51898,-2.601909 2.80204,-1.734599 5.04207,-4.174296 6.71948,-7.319449 1.69648,-3.145154 2.54455,-6.652347 2.54455,-10.521839 0,-4.136353 -0.81011,-7.71062 -2.43034,-10.722343 -1.62023,-3.011722 -3.87898,-5.422821 -6.77633,-7.233667 -1.69648,-1.048384 -3.77427,-1.867856 -6.23321,-2.458764 -2.43988,-0.609969 -5.73752,-0.91519 -9.89294,-0.91519 z m 55.64105,0 -15.49725,42.574145 h 5.74694 l 4.17442,-11.865942 h 18.41387 l 4.17442,11.865942 h 6.0327 L 409.78326,56.119572 Z m 20.35741,0 v 5.032251 h 15.21148 v 37.541894 h 5.66115 V 61.151823 h 15.21096 v -5.032251 z m -104.73366,4.002856 c 4.28885,0 7.67229,1.505831 10.15029,4.517554 2.478,2.992661 3.71709,7.253286 3.71709,12.781132 0,5.58503 -1.25782,9.86386 -3.77393,12.837459 -2.49707,2.954539 -5.86178,4.432288 -10.09345,4.432288 -4.23166,0 -7.60522,-1.477749 -10.12134,-4.432288 -2.51613,-2.973599 -3.77445,-7.252429 -3.77445,-12.837459 0,-5.527846 1.22973,-9.788471 3.68867,-12.781132 2.47799,-3.011723 5.88016,-4.517554 10.20712,-4.517554 z m -92.55352,0.829407 h 6.74791 c 1.88709,0 3.46935,0.06656 4.74648,0.199988 1.27712,0.114369 2.36386,0.42895 3.25975,0.943612 0.76246,0.438415 1.31519,1.01038 1.6583,1.715657 0.3431,0.705277 0.51469,1.572586 0.51469,2.601908 0,1.239 -0.19083,2.315857 -0.57206,3.230811 -0.36217,0.895892 -0.99133,1.62957 -1.88722,2.201416 -0.89589,0.571846 -1.86771,0.952984 -2.9161,1.143599 -1.04838,0.171554 -2.45906,0.257349 -4.23178,0.257349 h -7.31997 z m 40.1438,0.02842 h 6.66213 c 1.52492,0 2.84981,0.114393 3.97443,0.343132 1.12464,0.209677 2.09646,0.590814 2.9161,1.143599 0.9912,0.648092 1.6968,1.448844 2.11615,2.401921 0.43842,0.934015 0.65733,2.010872 0.65733,3.23081 0,1.601169 -0.20955,2.92605 -0.6289,3.974435 -0.4003,1.029323 -1.02945,1.944467 -1.88723,2.745052 -0.93401,0.857769 -2.06807,1.448456 -3.40237,1.772501 -1.33431,0.304985 -2.89734,0.457337 -4.68912,0.457337 h -5.71852 z m 86.80659,0 h 5.31802 c 2.63049,0 4.88924,0.190827 6.77633,0.572058 1.88709,0.362169 3.66955,1.019413 5.34696,1.97249 2.30645,1.315246 4.04107,3.116937 5.20382,5.404321 1.16275,2.287384 1.74408,5.098859 1.74408,8.434627 0,3.316708 -0.53401,6.080345 -1.60145,8.291484 -1.04839,2.211138 -2.63014,3.993591 -4.74597,5.34696 -1.69647,1.086508 -3.56472,1.830063 -5.6043,2.230355 -2.02053,0.400292 -4.39367,0.60048 -7.11947,0.60048 h -5.31802 z m 53.61068,0.08578 7.4626,20.90105 H 398.37465 Z M 225.30511,78.021077 h 8.89248 c 1.86803,0 3.4503,0.07643 4.74648,0.228927 1.31525,0.133431 2.43006,0.438651 3.34502,0.91519 1.35336,0.705276 2.28774,1.562708 2.80241,2.572969 0.51466,1.010262 0.77153,2.373101 0.77153,4.08864 0,1.505861 -0.24751,2.735586 -0.74311,3.688663 -0.4956,0.953077 -1.27711,1.801148 -2.34456,2.544548 -1.01026,0.686215 -2.30654,1.163025 -3.88865,1.429887 -1.5821,0.247799 -3.61206,0.371553 -6.09007,0.371553 h -7.49153 z"
       transform="matrix(1.3733481,0,0,1.3733481,-141.40531,-3.4486772)" /><path
       id="text48-4-1"
       style="font-size:58.5571px;-inkscape-font-specification:'sans-serif, Normal';display:inline;mix-blend-mode:normal;fill:none;fill-opacity:1;stroke:#000000;stroke-width:0.71941;stroke-linecap:butt;stroke-linejoin:round;stroke-miterlimit:3.1;stroke-dasharray:none;stroke-opacity:0.996774;paint-order:normal;filter:url(#filter41-0-9)"
       d="m 317.83021,55.233321 c -2.93547,0 -5.65179,0.495531 -8.14885,1.486731 -2.478,0.9912 -4.5558,2.420596 -6.23322,4.288627 -1.75366,1.963338 -3.0879,4.327118 -4.00285,7.09104 -0.91495,2.744861 -1.37253,5.852195 -1.37253,9.321395 0,3.526384 0.45758,6.6618 1.37253,9.406661 0.93401,2.744861 2.25889,5.060804 3.97443,6.947896 1.71554,1.887092 3.79334,3.326366 6.23321,4.317566 2.45894,0.9912 5.18462,1.486731 8.17728,1.486731 3.06891,0 5.79459,-0.48617 8.17728,-1.458309 2.40175,-0.972138 4.47955,-2.420772 6.23321,-4.345988 1.69647,-1.848968 3.01148,-4.155551 3.9455,-6.919474 0.95307,-2.782984 1.42988,-5.92776 1.42988,-9.435083 0,-3.507322 -0.46693,-6.643254 -1.40094,-9.407178 -0.91496,-2.763922 -2.23984,-5.099103 -3.97444,-7.005257 -1.69648,-1.848969 -3.76491,-3.269005 -6.20479,-4.260205 -2.42081,-1.010262 -5.15585,-1.515153 -8.2057,-1.515153 z m -98.18625,0.886251 v 42.574145 h 15.09675 c 2.95454,0 5.38487,-0.267261 7.29103,-0.800984 1.92521,-0.533723 3.68843,-1.42963 5.2896,-2.687691 1.35336,-1.048385 2.43022,-2.382626 3.23081,-4.002857 0.80058,-1.62023 1.20096,-3.487962 1.20096,-5.603792 0,-2.954539 -0.82884,-5.394752 -2.48719,-7.319967 -1.65836,-1.944277 -3.92698,-3.211444 -6.80527,-3.802352 v -0.228926 c 1.71554,-0.85777 3.08826,-1.991823 4.11758,-3.402377 1.02932,-1.429615 1.54358,-3.154872 1.54358,-5.175394 0,-1.791785 -0.35255,-3.326214 -1.05782,-4.603337 -0.70528,-1.296184 -1.83933,-2.35432 -3.40238,-3.173966 -1.41055,-0.724338 -2.88778,-1.200632 -4.43177,-1.429371 -1.54398,-0.228738 -3.86929,-0.343131 -6.97632,-0.343131 z m 40.1438,0 v 42.574145 h 5.66115 V 81.767102 h 7.97729 l 14.23893,16.926615 h 7.34839 l -16.01195,-18.61385 c 2.70674,-1.048385 4.83237,-2.602052 6.37636,-4.660698 1.54398,-2.077708 2.31614,-4.651035 2.31614,-7.719942 0,-2.268323 -0.43885,-4.136054 -1.31568,-5.603792 -0.85777,-1.4868 -2.05838,-2.716526 -3.60237,-3.688664 -1.37243,-0.857769 -2.91674,-1.448456 -4.63227,-1.772502 -1.71554,-0.343107 -3.8599,-0.514697 -6.4332,-0.514697 z m 86.80607,0 v 42.574145 h 10.75077 c 3.90761,0 7.05291,-0.267261 9.4356,-0.800984 2.40175,-0.533723 4.5747,-1.401032 6.51898,-2.601909 2.80204,-1.734599 5.04207,-4.174296 6.71948,-7.319449 1.69648,-3.145154 2.54455,-6.652347 2.54455,-10.521839 0,-4.136353 -0.81011,-7.71062 -2.43034,-10.722343 -1.62023,-3.011722 -3.87898,-5.422821 -6.77633,-7.233667 -1.69648,-1.048384 -3.77427,-1.867856 -6.23321,-2.458764 -2.43988,-0.609969 -5.73752,-0.91519 -9.89294,-0.91519 z m 55.64105,0 -15.49725,42.574145 h 5.74694 l 4.17442,-11.865942 h 18.41387 l 4.17442,11.865942 h 6.0327 L 409.78326,56.119572 Z m 20.35741,0 v 5.032251 h 15.21148 v 37.541894 h 5.66115 V 61.151823 h 15.21096 v -5.032251 z m -104.73366,4.002856 c 4.28885,0 7.67229,1.505831 10.15029,4.517554 2.478,2.992661 3.71709,7.253286 3.71709,12.781132 0,5.58503 -1.25782,9.86386 -3.77393,12.837459 -2.49707,2.954539 -5.86178,4.432288 -10.09345,4.432288 -4.23166,0 -7.60522,-1.477749 -10.12134,-4.432288 -2.51613,-2.973599 -3.77445,-7.252429 -3.77445,-12.837459 0,-5.527846 1.22973,-9.788471 3.68867,-12.781132 2.47799,-3.011723 5.88016,-4.517554 10.20712,-4.517554 z m -92.55352,0.829407 h 6.74791 c 1.88709,0 3.46935,0.06656 4.74648,0.199988 1.27712,0.114369 2.36386,0.42895 3.25975,0.943612 0.76246,0.438415 1.31519,1.01038 1.6583,1.715657 0.3431,0.705277 0.51469,1.572586 0.51469,2.601908 0,1.239 -0.19083,2.315857 -0.57206,3.230811 -0.36217,0.895892 -0.99133,1.62957 -1.88722,2.201416 -0.89589,0.571846 -1.86771,0.952984 -2.9161,1.143599 -1.04838,0.171554 -2.45906,0.257349 -4.23178,0.257349 h -7.31997 z m 40.1438,0.02842 h 6.66213 c 1.52492,0 2.84981,0.114393 3.97443,0.343132 1.12464,0.209677 2.09646,0.590814 2.9161,1.143599 0.9912,0.648092 1.6968,1.448844 2.11615,2.401921 0.43842,0.934015 0.65733,2.010872 0.65733,3.23081 0,1.601169 -0.20955,2.92605 -0.6289,3.974435 -0.4003,1.029323 -1.02945,1.944467 -1.88723,2.745052 -0.93401,0.857769 -2.06807,1.448456 -3.40237,1.772501 -1.33431,0.304985 -2.89734,0.457337 -4.68912,0.457337 h -5.71852 z m 86.80659,0 h 5.31802 c 2.63049,0 4.88924,0.190827 6.77633,0.572058 1.88709,0.362169 3.66955,1.019413 5.34696,1.97249 2.30645,1.315246 4.04107,3.116937 5.20382,5.404321 1.16275,2.287384 1.74408,5.098859 1.74408,8.434627 0,3.316708 -0.53401,6.080345 -1.60145,8.291484 -1.04839,2.211138 -2.63014,3.993591 -4.74597,5.34696 -1.69647,1.086508 -3.56472,1.830063 -5.6043,2.230355 -2.02053,0.400292 -4.39367,0.60048 -7.11947,0.60048 h -5.31802 z m 53.61068,0.08578 7.4626,20.90105 H 398.37465 Z M 225.30511,78.021077 h 8.89248 c 1.86803,0 3.4503,0.07643 4.74648,0.228927 1.31525,0.133431 2.43006,0.438651 3.34502,0.91519 1.35336,0.705276 2.28774,1.562708 2.80241,2.572969 0.51466,1.010262 0.77153,2.373101 0.77153,4.08864 0,1.505861 -0.24751,2.735586 -0.74311,3.688663 -0.4956,0.953077 -1.27711,1.801148 -2.34456,2.544548 -1.01026,0.686215 -2.30654,1.163025 -3.88865,1.429887 -1.5821,0.247799 -3.61206,0.371553 -6.09007,0.371553 h -7.49153 z"
       transform="matrix(1.3733481,0,0,1.3733481,-140.01411,-5.1092435)" /><path
       id="text48"
       style="font-size:58.5571px;-inkscape-font-specification:'sans-serif, Normal';fill:url(#linearGradient60);stroke:none;stroke-width:3.13531;stroke-linejoin:bevel;stroke-dasharray:none;stroke-opacity:1;paint-order:markers fill stroke"
       d="m 297.37742,69.845338 c -4.03143,0 -7.76188,0.680537 -11.19121,2.0418 -3.40317,1.361262 -6.25671,3.324321 -8.56038,5.889777 -2.40839,2.696347 -4.24077,5.942639 -5.49732,9.738466 -1.25654,3.769651 -1.88495,8.037102 -1.88495,12.801519 0,4.84295 0.62841,9.14897 1.88495,12.91862 1.28273,3.76965 3.10225,6.95026 5.45828,9.54188 2.35604,2.59164 5.20958,4.56827 8.56036,5.92952 3.377,1.36127 7.1203,2.0418 11.23027,2.0418 4.21467,0 7.95799,-0.66767 11.23025,-2.00275 3.29843,-1.33509 6.15197,-3.32457 8.56036,-5.96857 2.32984,-2.53927 4.13582,-5.70702 5.41855,-9.50285 1.30889,-3.822 1.96372,-8.14087 1.96372,-12.95765 0,-4.816773 -0.64126,-9.123499 -1.92398,-12.919328 -1.25656,-3.795828 -3.07608,-7.002844 -5.45829,-9.620657 -2.32985,-2.539277 -5.17053,-4.489481 -8.52134,-5.850744 -3.32461,-1.387442 -7.08078,-2.080833 -11.26927,-2.080833 z m -134.8439,1.217132 v 58.46912 h 20.73309 c 4.05761,0 7.39529,-0.36704 10.01311,-1.10003 2.644,-0.73298 5.06551,-1.96337 7.26447,-3.69113 1.85863,-1.43979 3.33754,-3.27218 4.43703,-5.49732 1.09947,-2.22514 1.64934,-4.79019 1.64934,-7.69596 0,-4.05761 -1.13828,-7.40887 -3.41578,-10.05286 -2.27751,-2.67017 -5.39312,-4.410431 -9.34601,-5.221954 V 95.95794 c 2.35603,-1.178016 4.24126,-2.735465 5.65487,-4.672646 1.41362,-1.963359 2.11988,-4.332738 2.11988,-7.107617 0,-2.460745 -0.48418,-4.568051 -1.45276,-6.321985 -0.9686,-1.780113 -2.52604,-3.233301 -4.67265,-4.35896 -1.93717,-0.994769 -3.96593,-1.648886 -6.08636,-1.963024 -2.12043,-0.314137 -5.31388,-0.471238 -9.58093,-0.471238 z m 55.1314,0 v 58.46912 h 7.77473 v -23.24614 h 10.9556 l 19.55501,23.24614 h 10.09189 l -21.98998,-25.5633 c 3.71731,-1.43979 6.63653,-3.57352 8.75697,-6.400757 2.12042,-2.853415 3.18086,-6.387489 3.18086,-10.602167 0,-3.115197 -0.6027,-5.680241 -1.80688,-7.695957 -1.17802,-2.041893 -2.82688,-3.730736 -4.94732,-5.065819 -1.88481,-1.178015 -4.00569,-1.989233 -6.36171,-2.434262 -2.35603,-0.471205 -5.30099,-0.706858 -8.83502,-0.706858 z m 119.21495,0 v 58.46912 h 14.76455 c 5.3665,0 9.6861,-0.36704 12.95837,-1.10003 3.29843,-0.73298 6.28266,-1.92409 8.95282,-3.57332 3.84818,-2.38221 6.92452,-5.73277 9.22819,-10.05216 2.32986,-4.31939 3.49456,-9.13599 3.49456,-14.45015 0,-5.680648 -1.11257,-10.58936 -3.33772,-14.725505 -2.22513,-4.136142 -5.32718,-7.44742 -9.30625,-9.934343 -2.32985,-1.439795 -5.18339,-2.565215 -8.56036,-3.376738 -3.35081,-0.837699 -7.87962,-1.256874 -13.58645,-1.256874 z m 76.41453,0 -21.28312,58.46912 h 7.89255 l 5.73294,-16.29607 h 25.28865 l 5.73293,16.29607 h 8.285 L 423.66096,71.06247 Z m 27.95781,0 v 6.911032 h 20.89066 v 51.558088 h 7.77473 V 77.973502 h 20.88994 V 71.06247 Z m -143.83577,5.497314 c 5.89009,0 10.53673,2.06803 13.93988,6.204174 3.40316,4.109965 5.10487,9.961287 5.10487,17.552942 0,7.67019 -1.72743,13.54651 -5.18292,17.6303 -3.42935,4.05762 -8.05027,6.08708 -13.86183,6.08708 -5.81154,0 -10.44461,-2.02946 -13.90012,-6.08708 -3.45552,-4.08379 -5.18364,-9.96011 -5.18364,-17.6303 0,-7.591655 1.68885,-13.442977 5.06583,-17.552942 3.40315,-4.136144 8.07551,-6.204174 14.01793,-6.204174 z m -127.1082,1.139065 h 9.26724 c 2.59163,0 4.76462,0.0914 6.51856,0.274653 1.75393,0.157068 3.24641,0.589098 4.47678,1.295907 1.04711,0.602097 1.80621,1.387604 2.27742,2.356195 0.4712,0.96859 0.70685,2.159708 0.70685,3.573325 0,1.701578 -0.26208,3.180478 -0.78564,4.437027 -0.49739,1.230373 -1.36144,2.237968 -2.59181,3.023311 -1.23037,0.785344 -2.56502,1.308779 -4.00482,1.57056 -1.43979,0.235604 -3.37715,0.35343 -5.81171,0.35343 h -10.05287 z m 55.13141,0.03903 h 9.14944 c 2.09424,0 3.91377,0.157101 5.45826,0.47124 1.54452,0.28796 2.87917,0.811393 4.00482,1.570559 1.36127,0.890057 2.3303,1.989767 2.90621,3.298673 0.60212,1.282728 0.90275,2.761629 0.90275,4.437028 0,2.198962 -0.28779,4.018484 -0.8637,5.458282 -0.54974,1.413619 -1.41379,2.67043 -2.59182,3.769912 -1.28272,1.178015 -2.84019,1.989235 -4.67264,2.434261 -1.83248,0.41885 -3.97905,0.628083 -6.4398,0.628083 h -7.85352 z m 119.21566,0 h 7.3035 c 3.61257,0 6.71462,0.262072 9.30626,0.785635 2.59163,0.497383 5.03957,1.400009 7.34324,2.708915 3.16755,1.806291 5.5498,4.28064 7.14665,7.422014 1.59686,3.141374 2.39523,7.002508 2.39523,11.583677 0,4.55499 -0.73339,8.35043 -2.19934,11.38709 -1.43981,3.03667 -3.6121,5.4846 -6.51788,7.34324 -2.32984,1.49215 -4.8956,2.51333 -7.69666,3.06307 -2.77488,0.54973 -6.03402,0.82465 -9.7775,0.82465 h -7.3035 z m 73.62613,0.117806 10.24874,28.704415 h -20.53722 z m -247.9732,23.285175 h 12.21248 c 2.56545,0 4.73846,0.10496 6.51857,0.31439 1.80629,0.18325 3.33731,0.60242 4.59388,1.25688 1.85862,0.96859 3.14186,2.14614 3.84867,3.53358 0.70681,1.38744 1.05958,3.25909 1.05958,5.61513 0,2.06807 -0.33991,3.75691 -1.02054,5.06581 -0.68063,1.30892 -1.75392,2.47362 -3.2199,3.49456 -1.38744,0.94241 -3.16769,1.59723 -5.34046,1.96373 -2.17278,0.34032 -4.96062,0.51028 -8.3638,0.51028 h -10.28848 z" /><text
       xml:space="preserve"
       transform="matrix(0.37903998,0,0,0.37903998,-105.5287,-56.707903)"
       id="text73-4"
       style="font-size:96px;font-family:sans-serif;-inkscape-font-specification:'sans-serif, Normal';font-variation-settings:normal;white-space:pre;shape-inside:url(#rect73-8);display:inline;mix-blend-mode:normal;fill:none;fill-opacity:1;fill-rule:nonzero;stroke:#000000;stroke-width:2.98385;stroke-linecap:butt;stroke-linejoin:bevel;stroke-miterlimit:4;stroke-dasharray:none;stroke-dashoffset:0;stroke-opacity:0.996774;paint-order:markers fill stroke;filter:url(#filter74);stop-color:#000000"><tspan
         x="694.24609"
         y="608.07004"
         id="tspan8"><tspan
           style="stop-color:#000000;stop-opacity:1"
           id="tspan7">LUCKY SHOES</tspan></tspan></text><text
       xml:space="preserve"
       transform="matrix(0.37903998,0,0,0.37903998,-106.89094,-55.611261)"
       id="text73-4-4"
       style="font-size:96px;font-family:sans-serif;-inkscape-font-specification:'sans-serif, Normal';font-variation-settings:normal;white-space:pre;shape-inside:url(#rect73-8-3);display:inline;mix-blend-mode:normal;fill:none;fill-opacity:1;fill-rule:nonzero;stroke:#000000;stroke-width:4.83063;stroke-linecap:butt;stroke-linejoin:bevel;stroke-miterlimit:4;stroke-dasharray:none;stroke-dashoffset:0;stroke-opacity:0.996774;paint-order:markers fill stroke;filter:url(#filter74-1);stop-color:#000000"><tspan
         x="694.24609"
         y="608.07004"
         id="tspan10"><tspan
           style="stop-color:#000000;stop-opacity:1"
           id="tspan9">LUCKY SHOES</tspan></tspan></text><text
       xml:space="preserve"
       transform="matrix(0.37903998,0,0,0.37903998,-104.7837,-57.461995)"
       id="text73"
       style="font-size:96px;font-family:sans-serif;-inkscape-font-specification:'sans-serif, Normal';font-variation-settings:normal;white-space:pre;shape-inside:url(#rect73);display:inline;opacity:1;vector-effect:none;fill:url(#linearGradient74);fill-opacity:1;fill-rule:nonzero;stroke:none;stroke-width:11.044;stroke-linecap:butt;stroke-linejoin:bevel;stroke-miterlimit:4;stroke-dasharray:none;stroke-dashoffset:0;stroke-opacity:1;-inkscape-stroke:none;paint-order:markers fill stroke;stop-color:#000000;stop-opacity:1"><tspan
         x="694.24609"
         y="608.07004"
         id="tspan12"><tspan
           style="vector-effect:none;stop-color:#000000;stop-opacity:1"
           id="tspan11">LUCKY SHOES</tspan></tspan></text></g><g
     inkscape:groupmode="layer"
     id="layer3"
     inkscape:label="logo"><path
       id="path16394-3-7"
       style="display:inline;mix-blend-mode:multiply;fill:none;stroke:#000000;stroke-width:6.00604;stroke-linecap:round;stroke-linejoin:bevel;stroke-dasharray:none;stroke-opacity:1;paint-order:normal;filter:url(#filter39-6)"
       d="m 68.21048,220.36359 c 0,0 -11.036536,-8.49941 -17.252545,-14.71542 -6.21601,-6.21601 -13.125349,-22.85197 -24.35658,-21.94624 -11.231205,0.9057 -11.290277,20.67768 -3.044539,36.15423 8.245738,15.47656 33.49025,26.89377 33.49025,26.89377 l -1.099188,3.55156 c -8.801394,27.90852 -5.757723,47.19143 -5.757723,47.19143 H 166.32001 c 0,0 3.04367,-19.28291 -5.75772,-47.19143 -8.79833,-27.89881 -16.34705,-32.09621 -16.35231,-32.09914 11.41629,-10.1708 18.60607,-24.98449 18.60607,-41.47713 0,-18.91117 -9.6242,-36.52332 -25.53971,-46.73734 0.31874,-0.29644 28.40063,-26.45443 35.46432,-47.645506 7.104,-21.31188 12.88455,-71.817797 1.01475,-73.5763022 C 123.98069,15.129954 113.46376,85.084604 112.19074,124.38576 h -4.16131 c 0,0 -1.17033,-49.263706 -13.867307,-73.503392 C 82.060266,27.778897 60.479752,8.8586128 48.205503,8.6581518 v 0 c -0.603634,-0.01085 -1.184351,0.02441 -1.740766,0.107947 -11.869746,1.7585052 -6.08924,52.2644252 1.014756,73.5763052 5.91251,17.737466 26.535632,38.937096 33.304477,45.566956 -17.295508,9.40851 -29.033845,27.74176 -29.033845,48.81589 0,16.93639 7.582324,32.10156 19.536708,42.28725 z"
       sodipodi:nodetypes="czzzccccscscssccssscscscc"
       inkscape:label="path16394"
       transform="matrix(0.76618046,0,0,0.76618046,-0.48398377,28.691382)" /><path
       id="path16394-3"
       style="display:inline;mix-blend-mode:multiply;fill:none;stroke:#000000;stroke-width:6.00604;stroke-linecap:round;stroke-linejoin:bevel;stroke-dasharray:none;stroke-opacity:1;paint-order:normal;filter:url(#filter39)"
       d="m 70.677454,216.85341 c 0,0 -11.036536,-8.49941 -17.252545,-14.71542 -6.21601,-6.21601 -13.125349,-22.85197 -24.35658,-21.94624 -11.231205,0.9057 -11.290277,20.67768 -3.044539,36.15423 8.245738,15.47656 33.49025,26.89377 33.49025,26.89377 l -1.099188,3.55156 c -8.801394,27.90852 -5.757723,47.19143 -5.757723,47.19143 H 168.78698 c 0,0 3.04367,-19.28291 -5.75772,-47.19143 -8.79833,-27.89881 -16.34705,-32.09621 -16.35231,-32.09914 11.41629,-10.1708 18.60607,-24.98449 18.60607,-41.47713 0,-18.91117 -9.6242,-36.52332 -25.53971,-46.73734 0.31874,-0.29644 28.40063,-26.45443 35.46432,-47.645508 7.104,-21.311878 12.88455,-71.817795 1.01475,-73.5763003 C 126.44766,11.619773 115.93073,81.574425 114.65771,120.87558 h -4.1613 c 0,0 -1.17033,-49.263711 -13.867313,-73.503393 C 84.52724,24.268716 62.946726,5.3484332 50.672477,5.1479719 v 0 c -0.603634,-0.010849 -1.184351,0.02441 -1.740766,0.1079469 -11.869746,1.7585052 -6.08924,52.2644222 1.014756,73.5763012 5.91251,17.737476 26.535632,38.9371 33.304477,45.56696 -17.295508,9.40851 -29.033845,27.74176 -29.033845,48.81589 0,16.93639 7.582324,32.10156 19.536708,42.28725 z"
       sodipodi:nodetypes="czzzccccscscssccssscscscc"
       inkscape:label="path16394"
       transform="matrix(0.76618046,0,0,0.76618046,-0.48398377,28.691382)" /><path
       id="path16394"
       style="display:inline;mix-blend-mode:normal;fill:none;stroke:url(#linearGradient48);stroke-width:6.18827;stroke-linecap:round;stroke-linejoin:bevel;stroke-dasharray:none;stroke-opacity:1;paint-order:normal;filter:url(#filter41)"
       d="m 74.053807,215.80232 c 0,0 -11.036536,-8.49941 -17.252545,-14.71542 -6.21601,-6.21601 -13.125349,-22.85197 -24.35658,-21.94624 -11.231205,0.9057 -11.290277,20.67768 -3.044539,36.15423 8.245738,15.47656 33.49025,26.89377 33.49025,26.89377 l -1.099188,3.55156 c -8.801394,27.90852 -5.757723,47.19143 -5.757723,47.19143 H 172.16333 c 0,0 3.04367,-19.28291 -5.75772,-47.19143 -8.79833,-27.89881 -16.34705,-32.09621 -16.35231,-32.09914 11.41629,-10.1708 18.60607,-24.98449 18.60607,-41.47713 0,-18.91117 -9.6242,-36.52332 -25.53971,-46.73734 0.31874,-0.29644 28.40063,-26.454433 35.46432,-47.645507 7.104,-21.311878 12.88455,-71.8177956 1.01475,-73.5763006 C 129.82401,10.568684 119.30708,80.523336 118.03406,119.82449 h -4.1613 c 0,0 -1.17033,-49.26371 -13.86731,-73.503392 C 87.903593,23.217627 66.323079,4.2973439 54.04883,4.0968826 v 0 c -0.603634,-0.010849 -1.184351,0.02441 -1.740766,0.1079469 -11.869746,1.758505 -6.08924,52.2644225 1.014756,73.5763015 5.91251,17.737476 26.535632,38.937099 33.304477,45.566959 -17.295508,9.40851 -29.033845,27.74176 -29.033845,48.81589 0,16.93639 7.582324,32.10156 19.536708,42.28725 z"
       sodipodi:nodetypes="czzzccccscscssccssscscscc"
       inkscape:label="path16394"
       transform="matrix(0.76618046,0,0,0.76618046,-0.48398377,28.691382)" /></g></svg>
