<?xml version="1.0" encoding="UTF-8" standalone="no"?>
<!-- Created with Inkscape (http://www.inkscape.org/) -->

<svg
   width="2300"
   height="1080"
   viewBox="0 0 608.54166 285.75"
   version="1.1"
   id="svg1"
   xml:space="preserve"
   sodipodi:docname="logo y texto metalico2.svg"
   inkscape:version="1.4 (86a8ad7, 2024-10-11)"
   xmlns:inkscape="http://www.inkscape.org/namespaces/inkscape"
   xmlns:sodipodi="http://sodipodi.sourceforge.net/DTD/sodipodi-0.dtd"
   xmlns:xlink="http://www.w3.org/1999/xlink"
   xmlns="http://www.w3.org/2000/svg"
   xmlns:svg="http://www.w3.org/2000/svg"><sodipodi:namedview
     id="namedview1"
     pagecolor="#505050"
     bordercolor="#ffffff"
     borderopacity="1"
     inkscape:showpageshadow="0"
     inkscape:pageopacity="0"
     inkscape:pagecheckerboard="1"
     inkscape:deskcolor="#d1d1d1"
     inkscape:document-units="mm"
     inkscape:zoom="0.34583057"
     inkscape:cx="1467.4816"
     inkscape:cy="597.1132"
     inkscape:window-width="1920"
     inkscape:window-height="1051"
     inkscape:window-x="-9"
     inkscape:window-y="-9"
     inkscape:window-maximized="1"
     inkscape:current-layer="layer1" /><defs
     id="defs1"><linearGradient
       id="linearGradient11"
       inkscape:collect="always"><stop
         style="stop-color:#d2af68;stop-opacity:1;"
         offset="0.03896104"
         id="stop1" /><stop
         style="stop-color:#cda658;stop-opacity:1;"
         offset="0.12207797"
         id="stop2" /><stop
         style="stop-color:#d3b06a;stop-opacity:1;"
         offset="0.17662333"
         id="stop3" /><stop
         style="stop-color:#f0bf62;stop-opacity:1;"
         offset="0.26233765"
         id="stop4" /><stop
         style="stop-color:#eabd68;stop-opacity:1;"
         offset="0.35324672"
         id="stop5" /><stop
         style="stop-color:#ba9754;stop-opacity:1;"
         offset="0.45181817"
         id="stop6" /><stop
         style="stop-color:#d4af67;stop-opacity:1;"
         offset="0.52207792"
         id="stop7" /><stop
         style="stop-color:#ba9754;stop-opacity:1;"
         offset="0.63116884"
         id="stop8" /><stop
         style="stop-color:#ba9754;stop-opacity:1;"
         offset="0.67272729"
         id="stop9" /><stop
         style="stop-color:#e0b959;stop-opacity:1;"
         offset="0.74025977"
         id="stop10" /><stop
         style="stop-color:#ba9754;stop-opacity:1;"
         offset="0.82077926"
         id="stop11" /></linearGradient><rect
       x="694.24603"
       y="520.48608"
       width="1084.0814"
       height="199.51967"
       id="rect73" /><linearGradient
       id="linearGradient66"
       inkscape:collect="always"><stop
         style="stop-color:#d2af68;stop-opacity:1;"
         offset="0.03896104"
         id="stop63" /><stop
         style="stop-color:#cda658;stop-opacity:1;"
         offset="0.12207797"
         id="stop64" /><stop
         style="stop-color:#d3b06a;stop-opacity:1;"
         offset="0.17662333"
         id="stop67" /><stop
         style="stop-color:#f5c168;stop-opacity:1;"
         offset="0.26233765"
         id="stop68" /><stop
         style="stop-color:#cbab6b;stop-opacity:1;"
         offset="0.35324672"
         id="stop65" /><stop
         style="stop-color:#ba9754;stop-opacity:1;"
         offset="0.45181817"
         id="stop66" /><stop
         style="stop-color:#f0bc4f;stop-opacity:1;"
         offset="0.52207792"
         id="stop73" /><stop
         style="stop-color:#ba9754;stop-opacity:1;"
         offset="0.63116884"
         id="stop72" /><stop
         style="stop-color:#ba9754;stop-opacity:1;"
         offset="0.67272729"
         id="stop70" /><stop
         style="stop-color:#eabf66;stop-opacity:1;"
         offset="0.74025977"
         id="stop69" /><stop
         style="stop-color:#ba9754;stop-opacity:1;"
         offset="0.82077926"
         id="stop71" /></linearGradient><linearGradient
       id="linearGradient16"
       inkscape:collect="always"><stop
         style="stop-color:#b18f6f;stop-opacity:1;"
         offset="0.13766234"
         id="stop42" /><stop
         style="stop-color:#d6be81;stop-opacity:1;"
         offset="0.19220781"
         id="stop19" /><stop
         style="stop-color:#c6a57c;stop-opacity:1;"
         offset="0.28571427"
         id="stop41" /><stop
         style="stop-color:#c5ab80;stop-opacity:1;"
         offset="0.3816883"
         id="stop40" /></linearGradient><linearGradient
       id="swatch12"
       inkscape:swatch="solid"><stop
         style="stop-color:#ffcd21;stop-opacity:1;"
         offset="0"
         id="stop12" /></linearGradient><filter
       inkscape:collect="always"
       style="color-interpolation-filters:sRGB"
       id="filter39"
       x="-0.055457651"
       y="-0.031262339"
       width="1.1109327"
       height="1.0625247"><feGaussianBlur
         inkscape:collect="always"
         stdDeviation="2.5111201"
         id="feGaussianBlur39" /></filter><filter
       inkscape:collect="always"
       style="color-interpolation-filters:sRGB"
       id="filter39-6"
       x="-0.055457649"
       y="-0.031262339"
       width="1.1109327"
       height="1.0625247"><feGaussianBlur
         inkscape:collect="always"
         stdDeviation="2.5111201"
         id="feGaussianBlur39-7" /></filter><filter
       inkscape:collect="always"
       style="color-interpolation-filters:sRGB"
       id="filter41"
       x="-0.021018773"
       y="-0.011844801"
       width="1.0420555"
       height="1.0236896"><feGaussianBlur
         inkscape:collect="always"
         stdDeviation="0.13628163"
         id="feGaussianBlur41" /></filter><linearGradient
       inkscape:collect="always"
       xlink:href="#linearGradient16"
       id="linearGradient48"
       x1="19.988647"
       y1="148.51331"
       x2="190.01024"
       y2="148.51331"
       gradientUnits="userSpaceOnUse"
       spreadMethod="reflect" /><linearGradient
       inkscape:collect="always"
       xlink:href="#linearGradient11"
       id="linearGradient60"
       gradientUnits="userSpaceOnUse"
       x1="19.988647"
       y1="148.51331"
       x2="190.01024"
       y2="148.51331"
       spreadMethod="reflect"
       gradientTransform="matrix(1.7813608,0,0,1.7813608,-226.70314,-39.805187)" /><filter
       inkscape:collect="always"
       style="color-interpolation-filters:sRGB"
       id="filter41-0"
       x="-0.013819573"
       y="-0.074488586"
       width="1.0276391"
       height="1.1489772"><feGaussianBlur
         inkscape:collect="always"
         stdDeviation="0.9079413"
         id="feGaussianBlur41-1" /></filter><linearGradient
       inkscape:collect="always"
       xlink:href="#linearGradient66"
       id="linearGradient74"
       gradientUnits="userSpaceOnUse"
       x1="19.988647"
       y1="148.51331"
       x2="190.01024"
       y2="148.51331"
       spreadMethod="reflect" /><rect
       x="694.24603"
       y="520.48608"
       width="1084.0814"
       height="199.51967"
       id="rect73-8" /><filter
       inkscape:collect="always"
       style="color-interpolation-filters:sRGB"
       id="filter74"
       x="-0.008098368"
       y="-0.075167057"
       width="1.0161967"
       height="1.1503341"><feGaussianBlur
         inkscape:collect="always"
         stdDeviation="1.6553979"
         id="feGaussianBlur74" /></filter><rect
       x="694.24603"
       y="520.48608"
       width="1084.0814"
       height="199.51967"
       id="rect73-8-3" /><filter
       inkscape:collect="always"
       style="color-interpolation-filters:sRGB"
       id="filter74-1"
       x="-0.014045895"
       y="-0.13037054"
       width="1.0280918"
       height="1.2607411"><feGaussianBlur
         inkscape:collect="always"
         stdDeviation="2.9429296"
         id="feGaussianBlur74-9" /></filter><filter
       inkscape:collect="always"
       style="color-interpolation-filters:sRGB"
       id="filter41-0-9"
       x="-0.0054538596"
       y="-0.029396733"
       width="1.0109077"
       height="1.0587935"><feGaussianBlur
         inkscape:collect="always"
         stdDeviation="0.39330897"
         id="feGaussianBlur41-1-4" /></filter></defs><g
     inkscape:label="Capa 1"
     inkscape:groupmode="layer"
     id="layer1"
     style="display:inline"><path
       id="text48-4"
       style="font-size:58.5571px;-inkscape-font-specification:'sans-serif, Normal';display:inline;mix-blend-mode:normal;fill:none;fill-opacity:1;stroke:#000000;stroke-width:2.24852;stroke-linecap:butt;stroke-linejoin:round;stroke-miterlimit:3.1;stroke-dasharray:none;stroke-opacity:0.996774;paint-order:normal;filter:url(#filter41-0)"
       d="m 317.83021,55.233321 c -2.93547,0 -5.65179,0.495531 -8.14885,1.486731 -2.478,0.9912 -4.5558,2.420596 -6.23322,4.288627 -1.75366,1.963338 -3.0879,4.327118 -4.00285,7.09104 -0.91495,2.744861 -1.37253,5.852195 -1.37253,9.321395 0,3.526384 0.45758,6.6618 1.37253,9.406661 0.93401,2.744861 2.25889,5.060804 3.97443,6.947896 1.71554,1.887092 3.79334,3.326366 6.23321,4.317566 2.45894,0.9912 5.18462,1.486731 8.17728,1.486731 3.06891,0 5.79459,-0.48617 8.17728,-1.458309 2.40175,-0.972138 4.47955,-2.420772 6.23321,-4.345988 1.69647,-1.848968 3.01148,-4.155551 3.9455,-6.919474 0.95307,-2.782984 1.42988,-5.92776 1.42988,-9.435083 0,-3.507322 -0.46693,-6.643254 -1.40094,-9.407178 -0.91496,-2.763922 -2.23984,-5.099103 -3.97444,-7.005257 -1.69648,-1.848969 -3.76491,-3.269005 -6.20479,-4.260205 -2.42081,-1.010262 -5.15585,-1.515153 -8.2057,-1.515153 z m -98.18625,0.886251 v 42.574145 h 15.09675 c 2.95454,0 5.38487,-0.267261 7.29103,-0.800984 1.92521,-0.533723 3.68843,-1.42963 5.2896,-2.687691 1.35336,-1.048385 2.43022,-2.382626 3.23081,-4.002857 0.80058,-1.62023 1.20096,-3.487962 1.20096,-5.603792 0,-2.954539 -0.82884,-5.394752 -2.48719,-7.319967 -1.65836,-1.944277 -3.92698,-3.211444 -6.80527,-3.802352 v -0.228926 c 1.71554,-0.85777 3.08826,-1.991823 4.11758,-3.402377 1.02932,-1.429615 1.54358,-3.154872 1.54358,-5.175394 0,-1.791785 -0.35255,-3.326214 -1.05782,-4.603337 -0.70528,-1.296184 -1.83933,-2.35432 -3.40238,-3.173966 -1.41055,-0.724338 -2.88778,-1.200632 -4.43177,-1.429371 -1.54398,-0.228738 -3.86929,-0.343131 -6.97632,-0.343131 z m 40.1438,0 v 42.574145 h 5.66115 V 81.767102 h 7.97729 l 14.23893,16.926615 h 7.34839 l -16.01195,-18.61385 c 2.70674,-1.048385 4.83237,-2.602052 6.37636,-4.660698 1.54398,-2.077708 2.31614,-4.651035 2.31614,-7.719942 0,-2.268323 -0.43885,-4.136054 -1.31568,-5.603792 -0.85777,-1.4868 -2.05838,-2.716526 -3.60237,-3.688664 -1.37243,-0.857769 -2.91674,-1.448456 -4.63227,-1.772502 -1.71554,-0.343107 -3.8599,-0.514697 -6.4332,-0.514697 z m 86.80607,0 v 42.574145 h 10.75077 c 3.90761,0 7.05291,-0.267261 9.4356,-0.800984 2.40175,-0.533723 4.5747,-1.401032 6.51898,-2.601909 2.80204,-1.734599 5.04207,-4.174296 6.71948,-7.319449 1.69648,-3.145154 2.54455,-6.652347 2.54455,-10.521839 0,-4.136353 -0.81011,-7.71062 -2.43034,-10.722343 -1.62023,-3.011722 -3.87898,-5.422821 -6.77633,-7.233667 -1.69648,-1.048384 -3.77427,-1.867856 -6.23321,-2.458764 -2.43988,-0.609969 -5.73752,-0.91519 -9.89294,-0.91519 z m 55.64105,0 -15.49725,42.574145 h 5.74694 l 4.17442,-11.865942 h 18.41387 l 4.17442,11.865942 h 6.0327 L 409.78326,56.119572 Z m 20.35741,0 v 5.032251 h 15.21148 v 37.541894 h 5.66115 V 61.151823 h 15.21096 v -5.032251 z m -104.73366,4.002856 c 4.28885,0 7.67229,1.505831 10.15029,4.517554 2.478,2.992661 3.71709,7.253286 3.71709,12.781132 0,5.58503 -1.25782,9.86386 -3.77393,12.837459 -2.49707,2.954539 -5.86178,4.432288 -10.09345,4.432288 -4.23166,0 -7.60522,-1.477749 -10.12134,-4.432288 -2.51613,-2.973599 -3.77445,-7.252429 -3.77445,-12.837459 0,-5.527846 1.22973,-9.788471 3.68867,-12.781132 2.47799,-3.011723 5.88016,-4.517554 10.20712,-4.517554 z m -92.55352,0.829407 h 6.74791 c 1.88709,0 3.46935,0.06656 4.74648,0.199988 1.27712,0.114369 2.36386,0.42895 3.25975,0.943612 0.76246,0.438415 1.31519,1.01038 1.6583,1.715657 0.3431,0.705277 0.51469,1.572586 0.51469,2.601908 0,1.239 -0.19083,2.315857 -0.57206,3.230811 -0.36217,0.895892 -0.99133,1.62957 -1.88722,2.201416 -0.89589,0.571846 -1.86771,0.952984 -2.9161,1.143599 -1.04838,0.171554 -2.45906,0.257349 -4.23178,0.257349 h -7.31997 z m 40.1438,0.02842 h 6.66213 c 1.52492,0 2.84981,0.114393 3.97443,0.343132 1.12464,0.209677 2.09646,0.590814 2.9161,1.143599 0.9912,0.648092 1.6968,1.448844 2.11615,2.401921 0.43842,0.934015 0.65733,2.010872 0.65733,3.23081 0,1.601169 -0.20955,2.92605 -0.6289,3.974435 -0.4003,1.029323 -1.02945,1.944467 -1.88723,2.745052 -0.93401,0.857769 -2.06807,1.448456 -3.40237,1.772501 -1.33431,0.304985 -2.89734,0.457337 -4.68912,0.457337 h -5.71852 z m 86.80659,0 h 5.31802 c 2.63049,0 4.88924,0.190827 6.77633,0.572058 1.88709,0.362169 3.66955,1.019413 5.34696,1.97249 2.30645,1.315246 4.04107,3.116937 5.20382,5.404321 1.16275,2.287384 1.74408,5.098859 1.74408,8.434627 0,3.316708 -0.53401,6.080345 -1.60145,8.291484 -1.04839,2.211138 -2.63014,3.993591 -4.74597,5.34696 -1.69647,1.086508 -3.56472,1.830063 -5.6043,2.230355 -2.02053,0.400292 -4.39367,0.60048 -7.11947,0.60048 h -5.31802 z m 53.61068,0.08578 7.4626,20.90105 H 398.37465 Z M 225.30511,78.021077 h 8.89248 c 1.86803,0 3.4503,0.07643 4.74648,0.228927 1.31525,0.133431 2.43006,0.438651 3.34502,0.91519 1.35336,0.705276 2.28774,1.562708 2.80241,2.572969 0.51466,1.010262 0.77153,2.373101 0.77153,4.08864 0,1.505861 -0.24751,2.735586 -0.74311,3.688663 -0.4956,0.953077 -1.27711,1.801148 -2.34456,2.544548 -1.01026,0.686215 -2.30654,1.163025 -3.88865,1.429887 -1.5821,0.247799 -3.61206,0.371553 -6.09007,0.371553 h -7.49153 z"
       transform="matrix(1.781361,0,0,1.781361,-229.67506,-36.483904)" /><path
       id="text48-4-1"
       style="font-size:58.5571px;-inkscape-font-specification:'sans-serif, Normal';display:inline;mix-blend-mode:normal;fill:none;fill-opacity:1;stroke:#000000;stroke-width:0.71941;stroke-linecap:butt;stroke-linejoin:round;stroke-miterlimit:3.1;stroke-dasharray:none;stroke-opacity:0.996774;paint-order:normal;filter:url(#filter41-0-9)"
       d="m 317.83021,55.233321 c -2.93547,0 -5.65179,0.495531 -8.14885,1.486731 -2.478,0.9912 -4.5558,2.420596 -6.23322,4.288627 -1.75366,1.963338 -3.0879,4.327118 -4.00285,7.09104 -0.91495,2.744861 -1.37253,5.852195 -1.37253,9.321395 0,3.526384 0.45758,6.6618 1.37253,9.406661 0.93401,2.744861 2.25889,5.060804 3.97443,6.947896 1.71554,1.887092 3.79334,3.326366 6.23321,4.317566 2.45894,0.9912 5.18462,1.486731 8.17728,1.486731 3.06891,0 5.79459,-0.48617 8.17728,-1.458309 2.40175,-0.972138 4.47955,-2.420772 6.23321,-4.345988 1.69647,-1.848968 3.01148,-4.155551 3.9455,-6.919474 0.95307,-2.782984 1.42988,-5.92776 1.42988,-9.435083 0,-3.507322 -0.46693,-6.643254 -1.40094,-9.407178 -0.91496,-2.763922 -2.23984,-5.099103 -3.97444,-7.005257 -1.69648,-1.848969 -3.76491,-3.269005 -6.20479,-4.260205 -2.42081,-1.010262 -5.15585,-1.515153 -8.2057,-1.515153 z m -98.18625,0.886251 v 42.574145 h 15.09675 c 2.95454,0 5.38487,-0.267261 7.29103,-0.800984 1.92521,-0.533723 3.68843,-1.42963 5.2896,-2.687691 1.35336,-1.048385 2.43022,-2.382626 3.23081,-4.002857 0.80058,-1.62023 1.20096,-3.487962 1.20096,-5.603792 0,-2.954539 -0.82884,-5.394752 -2.48719,-7.319967 -1.65836,-1.944277 -3.92698,-3.211444 -6.80527,-3.802352 v -0.228926 c 1.71554,-0.85777 3.08826,-1.991823 4.11758,-3.402377 1.02932,-1.429615 1.54358,-3.154872 1.54358,-5.175394 0,-1.791785 -0.35255,-3.326214 -1.05782,-4.603337 -0.70528,-1.296184 -1.83933,-2.35432 -3.40238,-3.173966 -1.41055,-0.724338 -2.88778,-1.200632 -4.43177,-1.429371 -1.54398,-0.228738 -3.86929,-0.343131 -6.97632,-0.343131 z m 40.1438,0 v 42.574145 h 5.66115 V 81.767102 h 7.97729 l 14.23893,16.926615 h 7.34839 l -16.01195,-18.61385 c 2.70674,-1.048385 4.83237,-2.602052 6.37636,-4.660698 1.54398,-2.077708 2.31614,-4.651035 2.31614,-7.719942 0,-2.268323 -0.43885,-4.136054 -1.31568,-5.603792 -0.85777,-1.4868 -2.05838,-2.716526 -3.60237,-3.688664 -1.37243,-0.857769 -2.91674,-1.448456 -4.63227,-1.772502 -1.71554,-0.343107 -3.8599,-0.514697 -6.4332,-0.514697 z m 86.80607,0 v 42.574145 h 10.75077 c 3.90761,0 7.05291,-0.267261 9.4356,-0.800984 2.40175,-0.533723 4.5747,-1.401032 6.51898,-2.601909 2.80204,-1.734599 5.04207,-4.174296 6.71948,-7.319449 1.69648,-3.145154 2.54455,-6.652347 2.54455,-10.521839 0,-4.136353 -0.81011,-7.71062 -2.43034,-10.722343 -1.62023,-3.011722 -3.87898,-5.422821 -6.77633,-7.233667 -1.69648,-1.048384 -3.77427,-1.867856 -6.23321,-2.458764 -2.43988,-0.609969 -5.73752,-0.91519 -9.89294,-0.91519 z m 55.64105,0 -15.49725,42.574145 h 5.74694 l 4.17442,-11.865942 h 18.41387 l 4.17442,11.865942 h 6.0327 L 409.78326,56.119572 Z m 20.35741,0 v 5.032251 h 15.21148 v 37.541894 h 5.66115 V 61.151823 h 15.21096 v -5.032251 z m -104.73366,4.002856 c 4.28885,0 7.67229,1.505831 10.15029,4.517554 2.478,2.992661 3.71709,7.253286 3.71709,12.781132 0,5.58503 -1.25782,9.86386 -3.77393,12.837459 -2.49707,2.954539 -5.86178,4.432288 -10.09345,4.432288 -4.23166,0 -7.60522,-1.477749 -10.12134,-4.432288 -2.51613,-2.973599 -3.77445,-7.252429 -3.77445,-12.837459 0,-5.527846 1.22973,-9.788471 3.68867,-12.781132 2.47799,-3.011723 5.88016,-4.517554 10.20712,-4.517554 z m -92.55352,0.829407 h 6.74791 c 1.88709,0 3.46935,0.06656 4.74648,0.199988 1.27712,0.114369 2.36386,0.42895 3.25975,0.943612 0.76246,0.438415 1.31519,1.01038 1.6583,1.715657 0.3431,0.705277 0.51469,1.572586 0.51469,2.601908 0,1.239 -0.19083,2.315857 -0.57206,3.230811 -0.36217,0.895892 -0.99133,1.62957 -1.88722,2.201416 -0.89589,0.571846 -1.86771,0.952984 -2.9161,1.143599 -1.04838,0.171554 -2.45906,0.257349 -4.23178,0.257349 h -7.31997 z m 40.1438,0.02842 h 6.66213 c 1.52492,0 2.84981,0.114393 3.97443,0.343132 1.12464,0.209677 2.09646,0.590814 2.9161,1.143599 0.9912,0.648092 1.6968,1.448844 2.11615,2.401921 0.43842,0.934015 0.65733,2.010872 0.65733,3.23081 0,1.601169 -0.20955,2.92605 -0.6289,3.974435 -0.4003,1.029323 -1.02945,1.944467 -1.88723,2.745052 -0.93401,0.857769 -2.06807,1.448456 -3.40237,1.772501 -1.33431,0.304985 -2.89734,0.457337 -4.68912,0.457337 h -5.71852 z m 86.80659,0 h 5.31802 c 2.63049,0 4.88924,0.190827 6.77633,0.572058 1.88709,0.362169 3.66955,1.019413 5.34696,1.97249 2.30645,1.315246 4.04107,3.116937 5.20382,5.404321 1.16275,2.287384 1.74408,5.098859 1.74408,8.434627 0,3.316708 -0.53401,6.080345 -1.60145,8.291484 -1.04839,2.211138 -2.63014,3.993591 -4.74597,5.34696 -1.69647,1.086508 -3.56472,1.830063 -5.6043,2.230355 -2.02053,0.400292 -4.39367,0.60048 -7.11947,0.60048 h -5.31802 z m 53.61068,0.08578 7.4626,20.90105 H 398.37465 Z M 225.30511,78.021077 h 8.89248 c 1.86803,0 3.4503,0.07643 4.74648,0.228927 1.31525,0.133431 2.43006,0.438651 3.34502,0.91519 1.35336,0.705276 2.28774,1.562708 2.80241,2.572969 0.51466,1.010262 0.77153,2.373101 0.77153,4.08864 0,1.505861 -0.24751,2.735586 -0.74311,3.688663 -0.4956,0.953077 -1.27711,1.801148 -2.34456,2.544548 -1.01026,0.686215 -2.30654,1.163025 -3.88865,1.429887 -1.5821,0.247799 -3.61206,0.371553 -6.09007,0.371553 h -7.49153 z"
       transform="matrix(1.781361,0,0,1.781361,-227.87057,-38.637814)" /><path
       id="text48"
       style="font-size:58.5571px;-inkscape-font-specification:'sans-serif, Normal';fill:url(#linearGradient60);stroke:none;stroke-width:4.0668;stroke-linejoin:bevel;stroke-dasharray:none;stroke-opacity:1;paint-order:markers fill stroke"
       d="m 339.46717,58.58529 c -5.22914,0 -10.06788,0.88272 -14.51605,2.648405 -4.41423,1.765684 -8.11553,4.311955 -11.1036,7.639592 -3.12392,3.497414 -5.50068,7.708159 -7.13055,12.631703 -1.62984,4.889589 -2.44495,10.424872 -2.44495,16.604766 0,6.281764 0.81511,11.867084 2.44495,16.756664 1.66382,4.88959 4.02391,9.01513 7.07991,12.3767 3.056,3.36161 6.75731,5.92548 11.10358,7.69115 4.38029,1.76569 9.2357,2.6484 14.56671,2.6484 5.46682,0 10.32226,-0.86603 14.56669,-2.59774 4.27837,-1.73174 7.97968,-4.31229 11.10358,-7.74181 3.02202,-3.29366 5.36455,-7.40252 7.02838,-12.32607 1.69775,-4.9575 2.54712,-10.55948 2.54712,-16.807294 0,-6.247805 -0.83178,-11.83403 -2.49558,-16.757576 -1.62987,-4.923544 -3.98997,-9.083344 -7.07992,-12.478893 -3.02203,-3.29368 -6.70666,-5.823276 -11.05296,-7.588962 -4.31234,-1.799642 -9.18444,-2.699035 -14.61731,-2.699035 z m -174.90515,1.578733 v 75.839927 h 26.89276 c 5.26309,0 9.59238,-0.47609 12.98794,-1.42685 3.42951,-0.95075 6.57043,-2.54667 9.42269,-4.78774 2.41081,-1.86755 4.3291,-4.24432 5.75525,-7.13054 1.42611,-2.88621 2.13935,-6.21332 2.13935,-9.98238 0,-5.2631 -1.47647,-9.61 -4.4306,-13.039498 -2.95413,-3.463461 -6.99537,-5.720743 -12.12264,-6.773363 v -0.407801 c 3.05598,-1.527997 5.50131,-3.548155 7.33489,-6.060859 1.83361,-2.54666 2.74969,-5.619967 2.74969,-9.219244 0,-3.191817 -0.62803,-5.925189 -1.88437,-8.200206 -1.25635,-2.308973 -3.27651,-4.193895 -6.06086,-5.65398 -2.51269,-1.290308 -5.14418,-2.138759 -7.89458,-2.546225 -2.7504,-0.407465 -6.8926,-0.611241 -12.42736,-0.611241 z m 71.51057,0 v 75.839927 h 10.08457 v -30.15242 h 14.21044 l 25.36467,30.15242 h 13.09013 l -28.52307,-33.158 c 4.82169,-1.86754 8.60821,-4.635189 11.35862,-8.302379 2.75037,-3.701147 4.12587,-8.285172 4.12587,-13.752003 0,-4.040702 -0.78176,-7.367805 -2.3437,-9.982376 -1.52801,-2.648526 -3.66672,-4.839114 -6.41714,-6.570841 -2.44476,-1.527996 -5.19575,-2.580221 -8.25173,-3.157465 -3.05598,-0.611198 -6.87588,-0.916863 -11.45984,-0.916863 z m 154.63295,0 v 75.839927 h 19.151 c 6.96086,0 12.56379,-0.47609 16.80822,-1.42685 4.27837,-0.95075 8.1492,-2.49573 11.61265,-4.63494 4.99145,-3.08994 8.98175,-7.43593 11.96982,-13.03858 3.02205,-5.60264 4.53278,-11.85024 4.53278,-18.743198 0,-7.368332 -1.44311,-13.73539 -4.32933,-19.100357 -2.8862,-5.364964 -6.90985,-9.66 -12.07108,-12.885772 -3.02203,-1.867549 -6.72334,-3.327325 -11.1036,-4.379945 -4.3463,-1.086574 -10.22059,-1.630285 -17.62289,-1.630285 z m 99.1168,0 -27.60621,75.839927 h 10.23739 l 7.43616,-21.13753 h 32.80173 l 7.43616,21.13753 h 10.74642 L 503.26874,60.164023 Z m 36.2639,0 v 8.964257 h 27.09714 v 66.87567 h 10.08454 V 69.12828 h 27.09622 v -8.964257 z m -186.56845,7.130532 c 7.63999,0 13.66711,2.682428 18.08132,8.047394 4.41422,5.331009 6.6215,12.92072 6.6215,22.767807 0,9.948954 -2.24065,17.571094 -6.72273,22.868144 -4.44819,5.26312 -10.44197,7.89551 -17.98009,7.89551 -7.53811,0 -13.54764,-2.63239 -18.02976,-7.89551 -4.48213,-5.29705 -6.72367,-12.91919 -6.72367,-22.868144 0,-9.847087 2.1906,-17.436798 6.57085,-22.767807 4.41421,-5.364966 10.4747,-8.047394 18.18258,-8.047394 z m -164.87123,1.477473 h 12.02048 c 3.36157,0 6.18015,0.118555 8.45517,0.356252 2.27502,0.203731 4.21091,0.764114 5.80681,1.680912 1.35819,0.780976 2.34283,1.799852 2.95402,3.056204 0.6112,1.256353 0.91686,2.801344 0.91686,4.634937 0,2.207107 -0.33995,4.125379 -1.01904,5.755239 -0.64517,1.595911 -1.76592,2.902855 -3.36183,3.921519 -1.5959,1.018664 -3.32708,1.697608 -5.19462,2.037163 -1.86755,0.3056 -4.38049,0.45843 -7.53834,0.45843 h -13.03951 z m 71.5106,0.05063 h 11.86768 c 2.71642,0 5.07652,0.203773 7.07987,0.611241 2.00339,0.373512 3.73455,1.052453 5.19462,2.037163 1.7657,1.154488 3.02262,2.580914 3.76963,4.278688 0.78101,1.663817 1.17095,3.58209 1.17095,5.755238 0,2.852262 -0.37329,5.212351 -1.1203,7.079903 -0.71307,1.833597 -1.83382,3.463798 -3.36182,4.889929 -1.66382,1.527996 -3.684,2.580223 -6.06086,3.157464 -2.3769,0.543288 -5.16119,0.814683 -8.35303,0.814683 h -10.18674 z m 154.63386,0 h 9.47332 c 4.68585,0 8.70949,0.339931 12.07109,1.019041 3.36159,0.645154 6.53679,1.815942 9.52487,3.513716 4.1086,2.342929 7.19861,5.55239 9.26988,9.627046 2.07127,4.074657 3.10683,9.082909 3.10683,15.025114 0,5.908245 -0.95128,10.831285 -2.85275,14.770115 -1.86757,3.93884 -4.68523,7.11404 -8.4543,9.52487 -3.02202,1.93546 -6.35005,3.26003 -9.98328,3.97309 -3.59929,0.71305 -7.82669,1.06965 -12.68234,1.06965 h -9.47332 z m 95.49997,0.152805 13.29358,37.232307 H 482.94588 Z M 174.64656,99.178508 h 15.84073 c 3.32763,0 6.14622,0.136143 8.45519,0.407794 2.34293,0.237692 4.3288,0.781398 5.95869,1.630288 2.4108,1.25635 4.07529,2.78375 4.99209,4.58339 0.91679,1.79963 1.37436,4.22734 1.37436,7.28335 0,2.68248 -0.44088,4.87306 -1.32373,6.57083 -0.88283,1.69778 -2.27499,3.20851 -4.17651,4.53277 -1.79964,1.2224 -4.10878,2.07174 -6.92707,2.54714 -2.8183,0.44142 -6.43438,0.66188 -10.84864,0.66188 h -13.34511 z" /><text
       xml:space="preserve"
       transform="matrix(0.60082434,0,0,0.60082434,-258.52976,-163.45398)"
       id="text73-4"
       style="font-size:96px;font-family:sans-serif;-inkscape-font-specification:'sans-serif, Normal';font-variation-settings:normal;white-space:pre;shape-inside:url(#rect73-8);display:inline;mix-blend-mode:normal;fill:none;fill-opacity:1;fill-rule:nonzero;stroke:#000000;stroke-width:2.98385;stroke-linecap:butt;stroke-linejoin:bevel;stroke-miterlimit:4;stroke-dasharray:none;stroke-dashoffset:0;stroke-opacity:0.996774;paint-order:markers fill stroke;filter:url(#filter74);stop-color:#000000"><tspan
         x="694.24609"
         y="608.07004"
         id="tspan8"><tspan
           style="stop-color:#000000;stop-opacity:1"
           id="tspan7">LUCKY SHOES</tspan></tspan></text><text
       xml:space="preserve"
       transform="matrix(0.60082434,0,0,0.60082434,-260.68906,-161.71568)"
       id="text73-4-4"
       style="font-size:96px;font-family:sans-serif;-inkscape-font-specification:'sans-serif, Normal';font-variation-settings:normal;white-space:pre;shape-inside:url(#rect73-8-3);display:inline;mix-blend-mode:normal;fill:none;fill-opacity:1;fill-rule:nonzero;stroke:#000000;stroke-width:4.83063;stroke-linecap:butt;stroke-linejoin:bevel;stroke-miterlimit:4;stroke-dasharray:none;stroke-dashoffset:0;stroke-opacity:0.996774;paint-order:markers fill stroke;filter:url(#filter74-1);stop-color:#000000"><tspan
         x="694.24609"
         y="608.07004"
         id="tspan10"><tspan
           style="stop-color:#000000;stop-opacity:1"
           id="tspan9">LUCKY SHOES</tspan></tspan></text><text
       xml:space="preserve"
       transform="matrix(0.60082434,0,0,0.60082434,-257.34884,-164.6493)"
       id="text73"
       style="font-size:96px;font-family:sans-serif;-inkscape-font-specification:'sans-serif, Normal';font-variation-settings:normal;white-space:pre;shape-inside:url(#rect73);display:inline;opacity:1;vector-effect:none;fill:url(#linearGradient74);fill-opacity:1;fill-rule:nonzero;stroke:none;stroke-width:11.044;stroke-linecap:butt;stroke-linejoin:bevel;stroke-miterlimit:4;stroke-dasharray:none;stroke-dashoffset:0;stroke-opacity:1;-inkscape-stroke:none;paint-order:markers fill stroke;stop-color:#000000;stop-opacity:1"><tspan
         x="694.24609"
         y="608.07004"
         id="tspan12"><tspan
           style="vector-effect:none;stop-color:#000000;stop-opacity:1"
           id="tspan11">LUCKY SHOES</tspan></tspan></text></g><g
     inkscape:groupmode="layer"
     id="layer3"
     inkscape:label="logo"><path
       id="path16394-3-7"
       style="display:inline;mix-blend-mode:multiply;fill:none;stroke:#000000;stroke-width:6.00604;stroke-linecap:round;stroke-linejoin:bevel;stroke-dasharray:none;stroke-opacity:1;paint-order:normal;filter:url(#filter39-6)"
       d="m 68.21048,220.36359 c 0,0 -11.036536,-8.49941 -17.252545,-14.71542 -6.21601,-6.21601 -13.125349,-22.85197 -24.35658,-21.94624 -11.231205,0.9057 -11.290277,20.67768 -3.044539,36.15423 8.245738,15.47656 33.49025,26.89377 33.49025,26.89377 l -1.099188,3.55156 c -8.801394,27.90852 -5.757723,47.19143 -5.757723,47.19143 H 166.32001 c 0,0 3.04367,-19.28291 -5.75772,-47.19143 -8.79833,-27.89881 -16.34705,-32.09621 -16.35231,-32.09914 11.41629,-10.1708 18.60607,-24.98449 18.60607,-41.47713 0,-18.91117 -9.6242,-36.52332 -25.53971,-46.73734 0.31874,-0.29644 28.40063,-26.45443 35.46432,-47.645506 7.104,-21.31188 12.88455,-71.817797 1.01475,-73.5763022 C 123.98069,15.129954 113.46376,85.084604 112.19074,124.38576 h -4.16131 c 0,0 -1.17033,-49.263706 -13.867307,-73.503392 C 82.060266,27.778897 60.479752,8.8586128 48.205503,8.6581518 v 0 c -0.603634,-0.01085 -1.184351,0.02441 -1.740766,0.107947 -11.869746,1.7585052 -6.08924,52.2644252 1.014756,73.5763052 5.91251,17.737466 26.535632,38.937096 33.304477,45.566956 -17.295508,9.40851 -29.033845,27.74176 -29.033845,48.81589 0,16.93639 7.582324,32.10156 19.536708,42.28725 z"
       sodipodi:nodetypes="czzzccccscscssccssscscscc"
       inkscape:label="path16394"
       transform="matrix(0.76618046,0,0,0.76618046,-0.48398377,28.691382)" /><path
       id="path16394-3"
       style="display:inline;mix-blend-mode:multiply;fill:none;stroke:#000000;stroke-width:6.00604;stroke-linecap:round;stroke-linejoin:bevel;stroke-dasharray:none;stroke-opacity:1;paint-order:normal;filter:url(#filter39)"
       d="m 70.677454,216.85341 c 0,0 -11.036536,-8.49941 -17.252545,-14.71542 -6.21601,-6.21601 -13.125349,-22.85197 -24.35658,-21.94624 -11.231205,0.9057 -11.290277,20.67768 -3.044539,36.15423 8.245738,15.47656 33.49025,26.89377 33.49025,26.89377 l -1.099188,3.55156 c -8.801394,27.90852 -5.757723,47.19143 -5.757723,47.19143 H 168.78698 c 0,0 3.04367,-19.28291 -5.75772,-47.19143 -8.79833,-27.89881 -16.34705,-32.09621 -16.35231,-32.09914 11.41629,-10.1708 18.60607,-24.98449 18.60607,-41.47713 0,-18.91117 -9.6242,-36.52332 -25.53971,-46.73734 0.31874,-0.29644 28.40063,-26.45443 35.46432,-47.645508 7.104,-21.311878 12.88455,-71.817795 1.01475,-73.5763003 C 126.44766,11.619773 115.93073,81.574425 114.65771,120.87558 h -4.1613 c 0,0 -1.17033,-49.263711 -13.867313,-73.503393 C 84.52724,24.268716 62.946726,5.3484332 50.672477,5.1479719 v 0 c -0.603634,-0.010849 -1.184351,0.02441 -1.740766,0.1079469 -11.869746,1.7585052 -6.08924,52.2644222 1.014756,73.5763012 5.91251,17.737476 26.535632,38.9371 33.304477,45.56696 -17.295508,9.40851 -29.033845,27.74176 -29.033845,48.81589 0,16.93639 7.582324,32.10156 19.536708,42.28725 z"
       sodipodi:nodetypes="czzzccccscscssccssscscscc"
       inkscape:label="path16394"
       transform="matrix(0.76618046,0,0,0.76618046,-0.48398377,28.691382)" /><path
       id="path16394"
       style="display:inline;mix-blend-mode:normal;fill:none;stroke:url(#linearGradient48);stroke-width:6.18827;stroke-linecap:round;stroke-linejoin:bevel;stroke-dasharray:none;stroke-opacity:1;paint-order:normal;filter:url(#filter41)"
       d="m 74.053807,215.80232 c 0,0 -11.036536,-8.49941 -17.252545,-14.71542 -6.21601,-6.21601 -13.125349,-22.85197 -24.35658,-21.94624 -11.231205,0.9057 -11.290277,20.67768 -3.044539,36.15423 8.245738,15.47656 33.49025,26.89377 33.49025,26.89377 l -1.099188,3.55156 c -8.801394,27.90852 -5.757723,47.19143 -5.757723,47.19143 H 172.16333 c 0,0 3.04367,-19.28291 -5.75772,-47.19143 -8.79833,-27.89881 -16.34705,-32.09621 -16.35231,-32.09914 11.41629,-10.1708 18.60607,-24.98449 18.60607,-41.47713 0,-18.91117 -9.6242,-36.52332 -25.53971,-46.73734 0.31874,-0.29644 28.40063,-26.454433 35.46432,-47.645507 7.104,-21.311878 12.88455,-71.8177956 1.01475,-73.5763006 C 129.82401,10.568684 119.30708,80.523336 118.03406,119.82449 h -4.1613 c 0,0 -1.17033,-49.26371 -13.86731,-73.503392 C 87.903593,23.217627 66.323079,4.2973439 54.04883,4.0968826 v 0 c -0.603634,-0.010849 -1.184351,0.02441 -1.740766,0.1079469 -11.869746,1.758505 -6.08924,52.2644225 1.014756,73.5763015 5.91251,17.737476 26.535632,38.937099 33.304477,45.566959 -17.295508,9.40851 -29.033845,27.74176 -29.033845,48.81589 0,16.93639 7.582324,32.10156 19.536708,42.28725 z"
       sodipodi:nodetypes="czzzccccscscssccssscscscc"
       inkscape:label="path16394"
       transform="matrix(0.76618046,0,0,0.76618046,-0.48398377,28.691382)" /></g></svg>
